<?xml version="1.0" encoding="utf-8" standalone="no"?>
<!DOCTYPE svg PUBLIC "-//W3C//DTD SVG 1.1//EN"
  "http://www.w3.org/Graphics/SVG/1.1/DTD/svg11.dtd">
<svg xmlns:xlink="http://www.w3.org/1999/xlink" width="575.294375pt" height="539.71625pt" viewBox="0 0 575.294375 539.71625" xmlns="http://www.w3.org/2000/svg" version="1.1">
 <metadata>
  <rdf:RDF xmlns:dc="http://purl.org/dc/elements/1.1/" xmlns:cc="http://creativecommons.org/ns#" xmlns:rdf="http://www.w3.org/1999/02/22-rdf-syntax-ns#">
   <cc:Work>
    <dc:type rdf:resource="http://purl.org/dc/dcmitype/StillImage"/>
    <dc:date>2025-10-13T15:34:15.288732</dc:date>
    <dc:format>image/svg+xml</dc:format>
    <dc:creator>
     <cc:Agent>
      <dc:title>Matplotlib v3.6.3, https://matplotlib.org/</dc:title>
     </cc:Agent>
    </dc:creator>
   </cc:Work>
  </rdf:RDF>
 </metadata>
 <defs>
  <style type="text/css">*{stroke-linejoin: round; stroke-linecap: butt}</style>
 </defs>
 <g id="figure_1">
  <g id="patch_1">
   <path d="M 0 539.71625 
L 575.294375 539.71625 
L 575.294375 0 
L 0 0 
z
" style="fill: #ffffff"/>
  </g>
  <g id="axes_1">
   <g id="patch_2">
    <path d="M 69.134375 506.16 
L 568.094375 506.16 
L 568.094375 7.2 
L 69.134375 7.2 
z
" style="fill: #ffffff"/>
   </g>
   <g id="matplotlib.axis_1">
    <g id="xtick_1">
     <g id="line2d_1">
      <path d="M 121.255822 506.16 
L 121.255822 7.2 
" clip-path="url(#p39389cf31a)" style="fill: none; stroke: #b0b0b0; stroke-width: 0.8; stroke-linecap: square"/>
     </g>
     <g id="line2d_2">
      <defs>
       <path id="m769d2a9601" d="M 0 0 
L 0 3.5 
" style="stroke: #000000; stroke-width: 0.8"/>
      </defs>
      <g>
       <use xlink:href="#m769d2a9601" x="121.255822" y="506.16" style="stroke: #000000; stroke-width: 0.8"/>
      </g>
     </g>
     <g id="text_1">
      <!-- −100 -->
      <g transform="translate(93.788634 528.356875) scale(0.2 -0.2)">
       <defs>
        <path id="DejaVuSans-2212" d="M 678 2272 
L 4684 2272 
L 4684 1741 
L 678 1741 
L 678 2272 
z
" transform="scale(0.015625)"/>
        <path id="DejaVuSans-31" d="M 794 531 
L 1825 531 
L 1825 4091 
L 703 3866 
L 703 4441 
L 1819 4666 
L 2450 4666 
L 2450 531 
L 3481 531 
L 3481 0 
L 794 0 
L 794 531 
z
" transform="scale(0.015625)"/>
        <path id="DejaVuSans-30" d="M 2034 4250 
Q 1547 4250 1301 3770 
Q 1056 3291 1056 2328 
Q 1056 1369 1301 889 
Q 1547 409 2034 409 
Q 2525 409 2770 889 
Q 3016 1369 3016 2328 
Q 3016 3291 2770 3770 
Q 2525 4250 2034 4250 
z
M 2034 4750 
Q 2819 4750 3233 4129 
Q 3647 3509 3647 2328 
Q 3647 1150 3233 529 
Q 2819 -91 2034 -91 
Q 1250 -91 836 529 
Q 422 1150 422 2328 
Q 422 3509 836 4129 
Q 1250 4750 2034 4750 
z
" transform="scale(0.015625)"/>
       </defs>
       <use xlink:href="#DejaVuSans-2212"/>
       <use xlink:href="#DejaVuSans-31" x="83.789062"/>
       <use xlink:href="#DejaVuSans-30" x="147.412109"/>
       <use xlink:href="#DejaVuSans-30" x="211.035156"/>
      </g>
     </g>
    </g>
    <g id="xtick_2">
     <g id="line2d_3">
      <path d="M 214.385991 506.16 
L 214.385991 7.2 
" clip-path="url(#p39389cf31a)" style="fill: none; stroke: #b0b0b0; stroke-width: 0.8; stroke-linecap: square"/>
     </g>
     <g id="line2d_4">
      <g>
       <use xlink:href="#m769d2a9601" x="214.385991" y="506.16" style="stroke: #000000; stroke-width: 0.8"/>
      </g>
     </g>
     <g id="text_2">
      <!-- −50 -->
      <g transform="translate(193.281304 528.356875) scale(0.2 -0.2)">
       <defs>
        <path id="DejaVuSans-35" d="M 691 4666 
L 3169 4666 
L 3169 4134 
L 1269 4134 
L 1269 2991 
Q 1406 3038 1543 3061 
Q 1681 3084 1819 3084 
Q 2600 3084 3056 2656 
Q 3513 2228 3513 1497 
Q 3513 744 3044 326 
Q 2575 -91 1722 -91 
Q 1428 -91 1123 -41 
Q 819 9 494 109 
L 494 744 
Q 775 591 1075 516 
Q 1375 441 1709 441 
Q 2250 441 2565 725 
Q 2881 1009 2881 1497 
Q 2881 1984 2565 2268 
Q 2250 2553 1709 2553 
Q 1456 2553 1204 2497 
Q 953 2441 691 2322 
L 691 4666 
z
" transform="scale(0.015625)"/>
       </defs>
       <use xlink:href="#DejaVuSans-2212"/>
       <use xlink:href="#DejaVuSans-35" x="83.789062"/>
       <use xlink:href="#DejaVuSans-30" x="147.412109"/>
      </g>
     </g>
    </g>
    <g id="xtick_3">
     <g id="line2d_5">
      <path d="M 307.516161 506.16 
L 307.516161 7.2 
" clip-path="url(#p39389cf31a)" style="fill: none; stroke: #b0b0b0; stroke-width: 0.8; stroke-linecap: square"/>
     </g>
     <g id="line2d_6">
      <g>
       <use xlink:href="#m769d2a9601" x="307.516161" y="506.16" style="stroke: #000000; stroke-width: 0.8"/>
      </g>
     </g>
     <g id="text_3">
      <!-- 0 -->
      <g transform="translate(301.153661 528.356875) scale(0.2 -0.2)">
       <use xlink:href="#DejaVuSans-30"/>
      </g>
     </g>
    </g>
    <g id="xtick_4">
     <g id="line2d_7">
      <path d="M 400.64633 506.16 
L 400.64633 7.2 
" clip-path="url(#p39389cf31a)" style="fill: none; stroke: #b0b0b0; stroke-width: 0.8; stroke-linecap: square"/>
     </g>
     <g id="line2d_8">
      <g>
       <use xlink:href="#m769d2a9601" x="400.64633" y="506.16" style="stroke: #000000; stroke-width: 0.8"/>
      </g>
     </g>
     <g id="text_4">
      <!-- 50 -->
      <g transform="translate(387.92133 528.356875) scale(0.2 -0.2)">
       <use xlink:href="#DejaVuSans-35"/>
       <use xlink:href="#DejaVuSans-30" x="63.623047"/>
      </g>
     </g>
    </g>
    <g id="xtick_5">
     <g id="line2d_9">
      <path d="M 493.7765 506.16 
L 493.7765 7.2 
" clip-path="url(#p39389cf31a)" style="fill: none; stroke: #b0b0b0; stroke-width: 0.8; stroke-linecap: square"/>
     </g>
     <g id="line2d_10">
      <g>
       <use xlink:href="#m769d2a9601" x="493.7765" y="506.16" style="stroke: #000000; stroke-width: 0.8"/>
      </g>
     </g>
     <g id="text_5">
      <!-- 100 -->
      <g transform="translate(474.689 528.356875) scale(0.2 -0.2)">
       <use xlink:href="#DejaVuSans-31"/>
       <use xlink:href="#DejaVuSans-30" x="63.623047"/>
       <use xlink:href="#DejaVuSans-30" x="127.246094"/>
      </g>
     </g>
    </g>
   </g>
   <g id="matplotlib.axis_2">
    <g id="ytick_1">
     <g id="line2d_11">
      <path d="M 69.134375 487.627096 
L 568.094375 487.627096 
" clip-path="url(#p39389cf31a)" style="fill: none; stroke: #b0b0b0; stroke-width: 0.8; stroke-linecap: square"/>
     </g>
     <g id="line2d_12">
      <defs>
       <path id="mfc5d94b974" d="M 0 0 
L -3.5 0 
" style="stroke: #000000; stroke-width: 0.8"/>
      </defs>
      <g>
       <use xlink:href="#mfc5d94b974" x="69.134375" y="487.627096" style="stroke: #000000; stroke-width: 0.8"/>
      </g>
     </g>
     <g id="text_6">
      <!-- −100 -->
      <g transform="translate(7.2 495.225534) scale(0.2 -0.2)">
       <use xlink:href="#DejaVuSans-2212"/>
       <use xlink:href="#DejaVuSans-31" x="83.789062"/>
       <use xlink:href="#DejaVuSans-30" x="147.412109"/>
       <use xlink:href="#DejaVuSans-30" x="211.035156"/>
      </g>
     </g>
    </g>
    <g id="ytick_2">
     <g id="line2d_13">
      <path d="M 69.134375 394.496927 
L 568.094375 394.496927 
" clip-path="url(#p39389cf31a)" style="fill: none; stroke: #b0b0b0; stroke-width: 0.8; stroke-linecap: square"/>
     </g>
     <g id="line2d_14">
      <g>
       <use xlink:href="#mfc5d94b974" x="69.134375" y="394.496927" style="stroke: #000000; stroke-width: 0.8"/>
      </g>
     </g>
     <g id="text_7">
      <!-- −50 -->
      <g transform="translate(19.925 402.095364) scale(0.2 -0.2)">
       <use xlink:href="#DejaVuSans-2212"/>
       <use xlink:href="#DejaVuSans-35" x="83.789062"/>
       <use xlink:href="#DejaVuSans-30" x="147.412109"/>
      </g>
     </g>
    </g>
    <g id="ytick_3">
     <g id="line2d_15">
      <path d="M 69.134375 301.366757 
L 568.094375 301.366757 
" clip-path="url(#p39389cf31a)" style="fill: none; stroke: #b0b0b0; stroke-width: 0.8; stroke-linecap: square"/>
     </g>
     <g id="line2d_16">
      <g>
       <use xlink:href="#mfc5d94b974" x="69.134375" y="301.366757" style="stroke: #000000; stroke-width: 0.8"/>
      </g>
     </g>
     <g id="text_8">
      <!-- 0 -->
      <g transform="translate(49.409375 308.965195) scale(0.2 -0.2)">
       <use xlink:href="#DejaVuSans-30"/>
      </g>
     </g>
    </g>
    <g id="ytick_4">
     <g id="line2d_17">
      <path d="M 69.134375 208.236588 
L 568.094375 208.236588 
" clip-path="url(#p39389cf31a)" style="fill: none; stroke: #b0b0b0; stroke-width: 0.8; stroke-linecap: square"/>
     </g>
     <g id="line2d_18">
      <g>
       <use xlink:href="#mfc5d94b974" x="69.134375" y="208.236588" style="stroke: #000000; stroke-width: 0.8"/>
      </g>
     </g>
     <g id="text_9">
      <!-- 50 -->
      <g transform="translate(36.684375 215.835025) scale(0.2 -0.2)">
       <use xlink:href="#DejaVuSans-35"/>
       <use xlink:href="#DejaVuSans-30" x="63.623047"/>
      </g>
     </g>
    </g>
    <g id="ytick_5">
     <g id="line2d_19">
      <path d="M 69.134375 115.106418 
L 568.094375 115.106418 
" clip-path="url(#p39389cf31a)" style="fill: none; stroke: #b0b0b0; stroke-width: 0.8; stroke-linecap: square"/>
     </g>
     <g id="line2d_20">
      <g>
       <use xlink:href="#mfc5d94b974" x="69.134375" y="115.106418" style="stroke: #000000; stroke-width: 0.8"/>
      </g>
     </g>
     <g id="text_10">
      <!-- 100 -->
      <g transform="translate(23.959375 122.704856) scale(0.2 -0.2)">
       <use xlink:href="#DejaVuSans-31"/>
       <use xlink:href="#DejaVuSans-30" x="63.623047"/>
       <use xlink:href="#DejaVuSans-30" x="127.246094"/>
      </g>
     </g>
    </g>
    <g id="ytick_6">
     <g id="line2d_21">
      <path d="M 69.134375 21.976249 
L 568.094375 21.976249 
" clip-path="url(#p39389cf31a)" style="fill: none; stroke: #b0b0b0; stroke-width: 0.8; stroke-linecap: square"/>
     </g>
     <g id="line2d_22">
      <g>
       <use xlink:href="#mfc5d94b974" x="69.134375" y="21.976249" style="stroke: #000000; stroke-width: 0.8"/>
      </g>
     </g>
     <g id="text_11">
      <!-- 150 -->
      <g transform="translate(23.959375 29.574686) scale(0.2 -0.2)">
       <use xlink:href="#DejaVuSans-31"/>
       <use xlink:href="#DejaVuSans-35" x="63.623047"/>
       <use xlink:href="#DejaVuSans-30" x="127.246094"/>
      </g>
     </g>
    </g>
   </g>
   <g id="line2d_23">
    <path d="M 306.846371 167.178473 
L 305.644437 167.139292 
L 304.348789 167.539347 
L 302.964644 168.377026 
L 301.497576 169.648958 
L 299.953493 171.35002 
L 298.33861 173.473364 
L 296.659432 176.010438 
L 294.92272 178.951027 
L 293.135466 182.28329 
L 291.304868 185.99381 
L 289.438296 190.067646 
L 287.543266 194.488393 
L 285.62741 199.23825 
L 283.698442 204.298093 
L 281.764128 209.647546 
L 279.832258 215.26507 
L 277.910611 221.128044 
L 276.006924 227.21286 
L 274.128863 233.495018 
L 272.283991 239.94922 
L 270.479735 246.549478 
L 268.723361 253.269216 
L 267.021942 260.081375 
L 265.382328 266.958524 
L 263.811121 273.872973 
L 262.314649 280.79688 
L 260.898936 287.702363 
L 259.569684 294.561617 
L 258.332245 301.347022 
L 257.191601 308.031257 
L 256.152346 314.587405 
L 255.218664 320.989067 
L 254.394316 327.210467 
L 253.682619 333.226553 
L 253.086441 339.0131 
L 252.608181 344.546808 
L 252.249766 349.805394 
L 252.012638 354.767684 
L 251.897753 359.413697 
L 251.905573 363.724725 
L 252.036066 367.683409 
L 252.288708 371.273808 
L 252.66248 374.481466 
L 253.155879 377.293466 
L 253.766916 379.698485 
L 254.493132 381.68684 
L 255.331602 383.250523 
L 256.27895 384.383239 
L 257.331362 385.080426 
L 258.4846 385.339276 
L 259.73402 385.158749 
L 261.074591 384.53957 
L 262.500916 383.484233 
L 264.00725 381.996987 
L 265.587529 380.083821 
L 267.235388 377.752439 
L 268.944194 375.012228 
L 270.707065 371.874221 
L 272.516902 368.351056 
L 274.366418 364.456918 
L 276.248166 360.207487 
L 278.154569 355.619875 
L 280.07795 350.712554 
L 282.010564 345.505285 
L 283.944629 340.019034 
L 285.872358 334.275894 
L 287.785989 328.298989 
L 289.677815 322.112388 
L 291.540219 315.741 
L 293.365702 309.210482 
L 295.146914 302.54713 
L 296.876681 295.777773 
L 298.54804 288.929671 
L 300.154259 282.030398 
L 301.688871 275.107736 
L 303.145697 268.189558 
L 304.51887 261.303723 
L 305.802863 254.477956 
L 306.992503 247.739744 
L 308.083001 241.116218 
L 309.069966 234.634049 
L 309.949424 228.319339 
L 310.717834 222.197514 
L 311.372101 216.293225 
L 311.90959 210.630247 
L 312.328138 205.231382 
L 312.62606 200.118369 
L 312.802155 195.311797 
L 312.855715 190.831021 
L 312.786523 186.694082 
L 312.594859 182.91764 
L 312.281494 179.516899 
L 311.847691 176.505554 
L 311.295195 173.89573 
L 310.626231 171.697937 
L 309.843494 169.921024 
L 308.950135 168.572145 
L 307.949751 167.656733 
L 306.846371 167.178473 
" clip-path="url(#p39389cf31a)" style="fill: none; stroke: #000000; stroke-width: 2; stroke-linecap: square"/>
   </g>
   <g id="line2d_24">
    <defs>
     <path id="m09402ff16b" d="M -3 0 
L 3 0 
M 0 3 
L 0 -3 
" style="stroke: #000000"/>
    </defs>
    <g clip-path="url(#p39389cf31a)">
     <use xlink:href="#m09402ff16b" x="282.371015" y="276.221611" style="stroke: #000000"/>
    </g>
   </g>
   <g id="line2d_25">
    <path d="M 307.516161 301.366757 
L 282.371015 276.221611 
L 282.371015 276.221611 
" clip-path="url(#p39389cf31a)" style="fill: none; stroke-dasharray: 3.7,1.6; stroke-dashoffset: 0; stroke: #000000; stroke-opacity: 0.3"/>
   </g>
   <g id="line2d_26">
    <path d="M 310.925597 149.004617 
L 309.31404 148.706226 
L 307.698622 148.530962 
L 306.101796 148.476218 
L 303.040238 148.696193 
L 300.242094 149.275323 
L 297.754196 150.107839 
L 295.572022 151.101938 
L 293.662341 152.191185 
L 291.213273 153.916815 
L 289.138823 155.696256 
L 287.327192 157.510204 
L 285.184623 159.989322 
L 283.241669 162.562895 
L 280.978946 165.955894 
L 278.820937 169.584808 
L 276.302836 174.290535 
L 273.822587 179.403297 
L 270.950587 185.892381 
L 268.092386 192.936148 
L 265.250094 200.508269 
L 262.033193 209.759479 
L 258.869069 219.579154 
L 255.781289 229.884742 
L 252.795192 240.585251 
L 249.936699 251.583461 
L 246.905383 264.185691 
L 244.103356 276.887518 
L 241.563794 289.539003 
L 239.551435 300.622418 
L 237.789857 311.447339 
L 236.296241 321.917095 
L 235.085659 331.941915 
L 234.17133 341.441755 
L 233.623847 349.270875 
L 233.320932 356.6147 
L 233.273562 363.457754 
L 233.44979 368.931475 
L 233.848417 374.074222 
L 234.380675 378.152826 
L 235.146727 382.113236 
L 235.992195 385.266333 
L 236.820529 387.67066 
L 237.887012 390.149949 
L 239.293804 392.736977 
L 240.492238 394.526457 
L 241.962835 396.353287 
L 243.764883 398.179201 
L 245.947565 399.932422 
L 248.526518 401.504977 
L 249.953477 402.182943 
L 251.456838 402.767115 
L 253.019377 403.243827 
L 254.620274 403.603157 
L 256.236659 403.839974 
L 257.84547 403.954346 
L 260.95785 403.83979 
L 263.828704 403.34049 
L 266.395359 402.561845 
L 268.6516 401.600873 
L 270.625481 400.530604 
L 273.150097 398.818814 
L 275.278326 397.04607 
L 277.12738 395.237726 
L 279.302528 392.768338 
L 281.265415 390.20821 
L 283.542591 386.836643 
L 285.708407 383.232852 
L 288.231207 378.560154 
L 290.713601 373.481827 
L 293.586793 367.032966 
L 296.44594 360.028112 
L 299.28961 352.492582 
L 302.509097 343.279402 
L 305.677183 333.492939 
L 308.770466 323.21513 
L 311.763676 312.536509 
L 314.630902 301.553966 
L 317.673938 288.961651 
L 320.489597 276.261424 
L 323.044566 263.603221 
L 325.07198 252.506978 
L 326.849757 241.663009 
L 328.360583 231.168341 
L 329.589259 221.11325 
L 330.522465 211.578488 
L 331.08708 203.715778 
L 331.40778 196.336538 
L 331.473881 189.457681 
L 331.315026 183.954647 
L 330.936165 178.786218 
L 330.424004 174.691566 
L 329.684697 170.723378 
L 328.869815 167.572981 
L 328.073926 165.177468 
L 327.053106 162.713251 
L 325.71202 160.145722 
L 324.572612 158.368526 
L 323.175634 156.54856 
L 321.461783 154.71713 
L 319.377514 152.936949 
L 316.896194 151.307453 
L 315.512488 150.588502 
L 314.045445 149.955543 
L 312.510087 149.423597 
L 310.925597 149.004617 
L 310.925597 149.004617 
" clip-path="url(#p39389cf31a)" style="fill: none; stroke-dasharray: 3.7,1.6; stroke-dashoffset: 0; stroke: #0000ff"/>
   </g>
   <g id="line2d_27">
    <path d="M 173.327877 300.696967 
L 173.806136 301.800348 
L 174.721549 302.800732 
L 176.070427 303.694091 
L 177.84734 304.476828 
L 180.045134 305.145791 
L 182.654957 305.698287 
L 185.666302 306.132091 
L 189.067043 306.445456 
L 192.843486 306.63712 
L 196.980424 306.706311 
L 201.461201 306.652752 
L 206.267773 306.476656 
L 211.380785 306.178735 
L 216.77965 305.760187 
L 222.442629 305.222697 
L 228.346918 304.56843 
L 234.468742 303.800021 
L 240.783453 302.920563 
L 247.265622 301.933598 
L 253.889147 300.843099 
L 260.62736 299.653459 
L 267.453126 298.369467 
L 274.338961 296.996293 
L 281.257139 295.539467 
L 288.179802 294.004855 
L 295.079075 292.398636 
L 301.927177 290.727278 
L 308.696533 288.99751 
L 315.359886 287.216299 
L 321.890404 285.390816 
L 328.261791 283.528411 
L 334.448393 281.636585 
L 340.425297 279.722955 
L 346.168438 277.795226 
L 351.654688 275.86116 
L 356.861958 273.928546 
L 361.769279 272.005165 
L 366.356891 270.098763 
L 370.606321 268.217015 
L 374.500459 266.367499 
L 378.023625 264.557661 
L 381.161631 262.794791 
L 383.901842 261.085985 
L 386.233225 259.438125 
L 388.14639 257.857846 
L 389.633636 256.351512 
L 390.688973 254.925188 
L 391.308152 253.584617 
L 391.48868 252.335197 
L 391.229829 251.181959 
L 390.532642 250.129547 
L 389.399927 249.182199 
L 387.836243 248.343728 
L 385.847889 247.617512 
L 383.44287 247.006475 
L 380.63087 246.513077 
L 377.423212 246.139305 
L 373.832813 245.886663 
L 369.874129 245.75617 
L 365.563101 245.74835 
L 360.917088 245.863235 
L 355.954797 246.100362 
L 350.696211 246.458778 
L 345.162503 246.937037 
L 339.375956 247.533216 
L 333.359871 248.244912 
L 327.138471 249.069261 
L 320.736808 250.002943 
L 314.18066 251.042198 
L 307.496426 252.182841 
L 300.71102 253.42028 
L 293.851766 254.749532 
L 286.946283 256.165245 
L 280.022377 257.661718 
L 273.107928 259.232924 
L 266.230778 260.872538 
L 259.418619 262.573958 
L 252.698882 264.330331 
L 246.098623 266.134587 
L 239.644421 267.97946 
L 233.362264 269.857521 
L 227.277447 271.761207 
L 221.414473 273.682855 
L 215.79695 275.614724 
L 210.447497 277.549038 
L 205.387654 279.478007 
L 200.637796 281.393863 
L 196.217049 283.288892 
L 192.143214 285.155464 
L 188.432694 286.986063 
L 185.10043 288.773316 
L 182.159841 290.510029 
L 179.622767 292.189207 
L 177.499424 293.804089 
L 175.798362 295.348173 
L 174.52643 296.815241 
L 173.68875 298.199385 
L 173.288695 299.495033 
L 173.327877 300.696967 
" clip-path="url(#p39389cf31a)" style="fill: none; stroke: #000000; stroke-width: 2; stroke-linecap: square"/>
   </g>
   <g id="line2d_28">
    <g clip-path="url(#p39389cf31a)">
     <use xlink:href="#m09402ff16b" x="282.371015" y="276.221611" style="stroke: #000000"/>
    </g>
   </g>
   <g id="line2d_29">
    <path d="M 307.516161 301.366757 
L 282.371015 276.221611 
L 282.371015 276.221611 
" clip-path="url(#p39389cf31a)" style="fill: none; stroke-dasharray: 3.7,1.6; stroke-dashoffset: 0; stroke: #000000; stroke-opacity: 0.3"/>
   </g>
   <g id="line2d_30">
    <path d="M 155.154021 304.776193 
L 155.573 306.360684 
L 156.104947 307.896042 
L 156.737905 309.363085 
L 158.245227 312.03694 
L 159.964672 314.319157 
L 161.780604 316.212595 
L 163.611959 317.76058 
L 165.412876 319.021547 
L 168.019652 320.498181 
L 170.514974 321.613137 
L 172.929168 322.475737 
L 176.08616 323.353249 
L 179.243236 324.009926 
L 183.277794 324.605491 
L 187.480884 325.005563 
L 192.811386 325.270974 
L 198.4937 325.328206 
L 205.587735 325.151398 
L 213.177347 324.725054 
L 221.237828 324.058519 
L 230.976428 323.013048 
L 241.206406 321.676913 
L 251.843056 320.064088 
L 262.793286 318.190552 
L 273.958124 316.074422 
L 286.646972 313.429011 
L 299.32787 310.533741 
L 311.851083 307.422697 
L 322.731331 304.505187 
L 333.270704 301.471427 
L 343.37446 298.3472 
L 352.954999 295.157248 
L 361.934305 291.923827 
L 369.246378 289.072783 
L 376.015185 286.208036 
L 382.222045 283.326279 
L 387.095367 280.827598 
L 391.574416 278.269304 
L 395.034292 276.04499 
L 398.287393 273.659825 
L 400.776684 271.54789 
L 402.596356 269.771456 
L 404.382019 267.74768 
L 406.119644 265.370195 
L 407.225277 263.521936 
L 408.24836 261.41166 
L 409.128958 259.002119 
L 409.781162 256.279526 
L 410.100673 253.275889 
L 410.103749 251.696066 
L 409.989377 250.087256 
L 409.752561 248.470871 
L 409.39323 246.869973 
L 408.916519 245.307434 
L 408.332346 243.804073 
L 406.898611 241.039216 
L 405.220262 238.657148 
L 403.419374 236.669483 
L 401.586314 235.040379 
L 399.775117 233.71326 
L 397.148566 232.162409 
L 394.636314 230.995971 
L 392.211193 230.097143 
L 389.049073 229.18602 
L 385.895634 228.505575 
L 381.874276 227.887783 
L 377.690562 227.469917 
L 372.387912 227.186141 
L 366.735813 227.112253 
L 359.677633 227.270793 
L 352.122798 227.679652 
L 344.094807 228.329303 
L 334.389484 229.356182 
L 324.187839 230.674541 
L 313.573952 232.270519 
L 302.640471 234.128269 
L 291.486064 236.229807 
L 278.801171 238.860386 
L 266.115894 241.742648 
L 253.580022 244.842634 
L 242.681742 247.752016 
L 232.118226 250.779271 
L 221.984592 253.898585 
L 212.368953 257.085117 
L 203.350007 260.316397 
L 196.000245 263.166308 
L 189.191819 266.030111 
L 182.944586 268.910237 
L 178.037337 271.405739 
L 173.526622 273.957139 
L 170.043648 276.170142 
L 166.772085 278.534452 
L 164.272163 280.61758 
L 162.446593 282.360916 
L 160.655042 284.336967 
L 158.906963 286.646716 
L 157.78721 288.436361 
L 156.73887 290.477146 
L 155.81559 292.809307 
L 155.096952 295.454451 
L 154.684237 298.394157 
L 154.625622 299.952392 
L 154.680366 301.549218 
L 154.855629 303.164636 
L 155.154021 304.776193 
L 155.154021 304.776193 
" clip-path="url(#p39389cf31a)" style="fill: none; stroke-dasharray: 3.7,1.6; stroke-dashoffset: 0; stroke: #0000ff"/>
   </g>
   <g id="line2d_31">
    <path d="M 530.842307 301.366757 
L 527.306712 301.255068 
L 523.770783 301.154548 
L 520.235188 301.042859 
L 516.699258 300.942338 
L 513.163663 300.830649 
L 509.627733 300.730129 
L 506.092138 300.61844 
L 502.556208 300.51792 
L 499.020614 300.40623 
L 495.484684 300.30571 
L 491.949089 300.194021 
L 488.413159 300.093501 
L 484.877564 299.981812 
L 481.341634 299.881291 
L 477.80604 299.769602 
L 474.27011 299.669082 
L 470.734515 299.557393 
L 467.198585 299.456873 
L 463.66299 299.345183 
L 460.12706 299.244663 
L 456.591466 299.132974 
L 453.055536 299.032454 
L 449.519941 298.920765 
L 445.984011 298.820244 
L 442.448416 298.708555 
L 438.912486 298.608035 
L 435.376891 298.496346 
L 431.840962 298.395826 
L 428.305367 298.284136 
L 424.769437 298.183616 
L 421.233842 298.071927 
L 417.697912 297.971407 
L 414.162317 297.859718 
L 410.626387 297.759197 
L 407.090793 297.647508 
L 403.554863 297.546988 
L 400.019268 297.435299 
L 396.483338 297.334778 
L 392.947743 297.223089 
L 389.411813 297.122569 
L 384.217275 296.899753 
L 383.114085 297.066484 
L 381.82097 297.222407 
L 380.89969 297.333494 
L 379.824393 297.631092 
L 378.553933 297.918997 
L 377.498416 298.280538 
L 374.687923 299.243202 
L 373.446174 299.62732 
L 371.71098 300.292386 
L 369.075075 301.212944 
L 367.128803 301.838379 
L 361.648399 303.638844 
L 360.398781 304.002056 
L 350.122272 307.286089 
L 348.896682 307.723579 
L 347.821385 308.021177 
L 346.765867 308.382718 
L 344.245764 309.581475 
L 341.750927 310.804853 
L 340.777189 311.349522 
L 339.74525 311.773706 
L 335.013576 313.447445 
L 330.961756 314.805787 
L 329.763365 315.316491 
L 328.789628 315.86116 
L 326.45373 317.378282 
L 324.810423 318.597159 
L 322.232022 321.273388 
L 320.774769 322.96608 
L 319.922045 323.950873 
L 319.389845 324.711044 
L 318.050498 326.721413 
L 316.611072 328.176803 
L 315.951378 328.829413 
L 314.598248 330.606441 
L 312.546202 332.762024 
L 306.603276 338.107704 
L 305.211585 339.343168 
L 303.982873 340.183775 
L 303.235069 340.735925 
L 301.344633 342.527563 
L 299.425001 344.552153 
L 298.460517 345.427784 
L 295.045933 348.303864 
L 292.688587 349.794964 
L 286.68177 353.512637 
L 283.828948 355.599586 
L 282.700313 356.250079 
L 280.632281 357.076013 
L 279.784978 357.454396 
L 278.845653 358.056474 
L 277.257559 359.021446 
L 275.321568 360.129942 
L 272.814821 361.736688 
L 271.875496 362.338766 
L 270.287403 363.303738 
L 267.777614 364.522309 
L 263.547432 365.924134 
L 262.491914 366.285675 
L 260.933487 366.884034 
L 259.735096 367.394738 
L 258.761359 367.939407 
L 257.859827 368.596727 
L 254.234697 372.073067 
L 253.537057 372.684945 
L 252.817611 373.537721 
L 252.048325 374.345822 
L 247.350098 378.852371 
L 245.886828 380.00216 
L 244.871573 380.818381 
L 243.195928 381.991767 
L 235.463061 387.160362 
L 233.863482 388.106175 
L 231.972219 389.291894 
L 227.640221 391.43417 
L 225.876138 392.014896 
L 223.651057 392.193277 
L 220.30808 392.115296 
L 217.754871 391.593928 
L 216.473433 391.360745 
L 214.197279 390.56375 
L 213.091613 389.874938 
L 209.95205 387.889097 
L 209.292356 387.236487 
L 206.074188 382.465155 
L 205.312199 380.566736 
L 204.664969 378.624779 
L 204.235423 375.871413 
L 204.300609 373.640145 
L 204.814246 369.773005 
L 205.152491 368.323197 
L 205.740579 364.291975 
L 205.548772 363.004854 
L 205.212522 362.139966 
L 204.545507 361.245584 
L 203.812432 360.67664 
L 202.950565 360.328407 
L 201.685415 360.018803 
L 200.409287 359.763923 
L 199.149446 359.432622 
L 194.297852 358.142035 
L 190.595763 356.903484 
L 186.098482 354.675342 
L 185.289956 354.216684 
L 184.316219 353.672016 
L 183.376894 353.069938 
L 181.774625 351.798184 
L 177.873001 348.643178 
L 174.829987 345.381979 
L 172.094767 342.864263 
L 170.434072 340.861299 
L 169.023697 338.671651 
L 168.059268 337.080094 
L 167.397294 335.95971 
L 165.635766 332.899877 
L 164.179798 328.877834 
L 161.642909 320.724164 
L 161.411273 318.877675 
L 161.217106 317.401649 
L 160.909587 311.645297 
L 160.796241 309.415957 
L 160.726444 308.116497 
L 160.725532 307.001224 
L 160.813809 305.889003 
L 161.042134 303.294473 
L 161.631345 300.37587 
L 161.927271 299.107452 
L 162.116694 298.197397 
L 163.431556 294.129853 
L 164.161733 292.418123 
L 164.911908 290.716527 
L 165.684824 288.822136 
L 168.587266 284.058357 
L 169.451529 283.085466 
L 170.836308 281.334697 
L 172.972542 278.298738 
L 174.742764 276.39006 
L 177.279357 273.93035 
L 179.142879 272.117584 
L 180.350977 271.252204 
L 181.296331 270.355954 
L 182.469192 269.160533 
L 182.469192 269.160533 
" clip-path="url(#p39389cf31a)" style="fill: none; stroke: #ff0000; stroke-opacity: 0.7; stroke-width: 1.5; stroke-linecap: square"/>
   </g>
   <g id="patch_3">
    <path d="M 69.134375 506.16 
L 69.134375 7.2 
" style="fill: none; stroke: #000000; stroke-width: 0.8; stroke-linejoin: miter; stroke-linecap: square"/>
   </g>
   <g id="patch_4">
    <path d="M 568.094375 506.16 
L 568.094375 7.2 
" style="fill: none; stroke: #000000; stroke-width: 0.8; stroke-linejoin: miter; stroke-linecap: square"/>
   </g>
   <g id="patch_5">
    <path d="M 69.134375 506.16 
L 568.094375 506.16 
" style="fill: none; stroke: #000000; stroke-width: 0.8; stroke-linejoin: miter; stroke-linecap: square"/>
   </g>
   <g id="patch_6">
    <path d="M 69.134375 7.2 
L 568.094375 7.2 
" style="fill: none; stroke: #000000; stroke-width: 0.8; stroke-linejoin: miter; stroke-linecap: square"/>
   </g>
   <g id="line2d_32">
    <defs>
     <path id="m7708e02e63" d="M 0 -5 
L -1.12257 -1.545085 
L -4.755283 -1.545085 
L -1.816356 0.59017 
L -2.938926 4.045085 
L -0 1.90983 
L 2.938926 4.045085 
L 1.816356 0.59017 
L 4.755283 -1.545085 
L 1.12257 -1.545085 
z
" style="stroke: #008000; stroke-linejoin: bevel"/>
    </defs>
    <g clip-path="url(#p39389cf31a)">
     <use xlink:href="#m7708e02e63" x="182.469192" y="269.160533" style="fill: #008000; stroke: #008000; stroke-linejoin: bevel"/>
    </g>
   </g>
   <g id="line2d_33">
    <defs>
     <path id="md7d2371eeb" d="M 0 1.5 
C 0.397805 1.5 0.77937 1.341951 1.06066 1.06066 
C 1.341951 0.77937 1.5 0.397805 1.5 0 
C 1.5 -0.397805 1.341951 -0.77937 1.06066 -1.06066 
C 0.77937 -1.341951 0.397805 -1.5 0 -1.5 
C -0.397805 -1.5 -0.77937 -1.341951 -1.06066 -1.06066 
C -1.341951 -0.77937 -1.5 -0.397805 -1.5 0 
C -1.5 0.397805 -1.341951 0.77937 -1.06066 1.06066 
C -0.77937 1.341951 -0.397805 1.5 0 1.5 
z
" style="stroke: #000000"/>
    </defs>
    <g clip-path="url(#p39389cf31a)">
     <use xlink:href="#md7d2371eeb" x="530.842307" y="301.366757" style="stroke: #000000"/>
    </g>
   </g>
   <g id="text_12">
    <g id="patch_7">
     <path d="M 294.3808 76.869044 
L 558.115175 76.869044 
Q 565.615175 76.869044 565.615175 69.369044 
L 565.615175 17.1792 
Q 565.615175 9.6792 558.115175 9.6792 
L 294.3808 9.6792 
Q 286.8808 9.6792 286.8808 17.1792 
L 286.8808 69.369044 
Q 286.8808 76.869044 294.3808 76.869044 
z
" style="fill: #ffffff; opacity: 0.9; stroke: #000000; stroke-linejoin: miter"/>
    </g>
    <!-- Time: t = 27.0 s -->
    <g transform="translate(357.306581 36.175294) scale(0.25 -0.25)">
     <defs>
      <path id="DejaVuSans-54" d="M -19 4666 
L 3928 4666 
L 3928 4134 
L 2272 4134 
L 2272 0 
L 1638 0 
L 1638 4134 
L -19 4134 
L -19 4666 
z
" transform="scale(0.015625)"/>
      <path id="DejaVuSans-69" d="M 603 3500 
L 1178 3500 
L 1178 0 
L 603 0 
L 603 3500 
z
M 603 4863 
L 1178 4863 
L 1178 4134 
L 603 4134 
L 603 4863 
z
" transform="scale(0.015625)"/>
      <path id="DejaVuSans-6d" d="M 3328 2828 
Q 3544 3216 3844 3400 
Q 4144 3584 4550 3584 
Q 5097 3584 5394 3201 
Q 5691 2819 5691 2113 
L 5691 0 
L 5113 0 
L 5113 2094 
Q 5113 2597 4934 2840 
Q 4756 3084 4391 3084 
Q 3944 3084 3684 2787 
Q 3425 2491 3425 1978 
L 3425 0 
L 2847 0 
L 2847 2094 
Q 2847 2600 2669 2842 
Q 2491 3084 2119 3084 
Q 1678 3084 1418 2786 
Q 1159 2488 1159 1978 
L 1159 0 
L 581 0 
L 581 3500 
L 1159 3500 
L 1159 2956 
Q 1356 3278 1631 3431 
Q 1906 3584 2284 3584 
Q 2666 3584 2933 3390 
Q 3200 3197 3328 2828 
z
" transform="scale(0.015625)"/>
      <path id="DejaVuSans-65" d="M 3597 1894 
L 3597 1613 
L 953 1613 
Q 991 1019 1311 708 
Q 1631 397 2203 397 
Q 2534 397 2845 478 
Q 3156 559 3463 722 
L 3463 178 
Q 3153 47 2828 -22 
Q 2503 -91 2169 -91 
Q 1331 -91 842 396 
Q 353 884 353 1716 
Q 353 2575 817 3079 
Q 1281 3584 2069 3584 
Q 2775 3584 3186 3129 
Q 3597 2675 3597 1894 
z
M 3022 2063 
Q 3016 2534 2758 2815 
Q 2500 3097 2075 3097 
Q 1594 3097 1305 2825 
Q 1016 2553 972 2059 
L 3022 2063 
z
" transform="scale(0.015625)"/>
      <path id="DejaVuSans-3a" d="M 750 794 
L 1409 794 
L 1409 0 
L 750 0 
L 750 794 
z
M 750 3309 
L 1409 3309 
L 1409 2516 
L 750 2516 
L 750 3309 
z
" transform="scale(0.015625)"/>
      <path id="DejaVuSans-20" transform="scale(0.015625)"/>
      <path id="DejaVuSans-74" d="M 1172 4494 
L 1172 3500 
L 2356 3500 
L 2356 3053 
L 1172 3053 
L 1172 1153 
Q 1172 725 1289 603 
Q 1406 481 1766 481 
L 2356 481 
L 2356 0 
L 1766 0 
Q 1100 0 847 248 
Q 594 497 594 1153 
L 594 3053 
L 172 3053 
L 172 3500 
L 594 3500 
L 594 4494 
L 1172 4494 
z
" transform="scale(0.015625)"/>
      <path id="DejaVuSans-3d" d="M 678 2906 
L 4684 2906 
L 4684 2381 
L 678 2381 
L 678 2906 
z
M 678 1631 
L 4684 1631 
L 4684 1100 
L 678 1100 
L 678 1631 
z
" transform="scale(0.015625)"/>
      <path id="DejaVuSans-32" d="M 1228 531 
L 3431 531 
L 3431 0 
L 469 0 
L 469 531 
Q 828 903 1448 1529 
Q 2069 2156 2228 2338 
Q 2531 2678 2651 2914 
Q 2772 3150 2772 3378 
Q 2772 3750 2511 3984 
Q 2250 4219 1831 4219 
Q 1534 4219 1204 4116 
Q 875 4013 500 3803 
L 500 4441 
Q 881 4594 1212 4672 
Q 1544 4750 1819 4750 
Q 2544 4750 2975 4387 
Q 3406 4025 3406 3419 
Q 3406 3131 3298 2873 
Q 3191 2616 2906 2266 
Q 2828 2175 2409 1742 
Q 1991 1309 1228 531 
z
" transform="scale(0.015625)"/>
      <path id="DejaVuSans-37" d="M 525 4666 
L 3525 4666 
L 3525 4397 
L 1831 0 
L 1172 0 
L 2766 4134 
L 525 4134 
L 525 4666 
z
" transform="scale(0.015625)"/>
      <path id="DejaVuSans-2e" d="M 684 794 
L 1344 794 
L 1344 0 
L 684 0 
L 684 794 
z
" transform="scale(0.015625)"/>
      <path id="DejaVuSans-73" d="M 2834 3397 
L 2834 2853 
Q 2591 2978 2328 3040 
Q 2066 3103 1784 3103 
Q 1356 3103 1142 2972 
Q 928 2841 928 2578 
Q 928 2378 1081 2264 
Q 1234 2150 1697 2047 
L 1894 2003 
Q 2506 1872 2764 1633 
Q 3022 1394 3022 966 
Q 3022 478 2636 193 
Q 2250 -91 1575 -91 
Q 1294 -91 989 -36 
Q 684 19 347 128 
L 347 722 
Q 666 556 975 473 
Q 1284 391 1588 391 
Q 1994 391 2212 530 
Q 2431 669 2431 922 
Q 2431 1156 2273 1281 
Q 2116 1406 1581 1522 
L 1381 1569 
Q 847 1681 609 1914 
Q 372 2147 372 2553 
Q 372 3047 722 3315 
Q 1072 3584 1716 3584 
Q 2034 3584 2315 3537 
Q 2597 3491 2834 3397 
z
" transform="scale(0.015625)"/>
     </defs>
     <use xlink:href="#DejaVuSans-54"/>
     <use xlink:href="#DejaVuSans-69" x="57.958984"/>
     <use xlink:href="#DejaVuSans-6d" x="85.742188"/>
     <use xlink:href="#DejaVuSans-65" x="183.154297"/>
     <use xlink:href="#DejaVuSans-3a" x="244.677734"/>
     <use xlink:href="#DejaVuSans-20" x="278.369141"/>
     <use xlink:href="#DejaVuSans-74" x="310.15625"/>
     <use xlink:href="#DejaVuSans-20" x="349.365234"/>
     <use xlink:href="#DejaVuSans-3d" x="381.152344"/>
     <use xlink:href="#DejaVuSans-20" x="464.941406"/>
     <use xlink:href="#DejaVuSans-32" x="496.728516"/>
     <use xlink:href="#DejaVuSans-37" x="560.351562"/>
     <use xlink:href="#DejaVuSans-2e" x="623.974609"/>
     <use xlink:href="#DejaVuSans-30" x="655.761719"/>
     <use xlink:href="#DejaVuSans-20" x="719.384766"/>
     <use xlink:href="#DejaVuSans-73" x="751.171875"/>
    </g>
    <!-- Coordinates: x, y [m] -->
    <g transform="translate(294.3808 64.169825) scale(0.25 -0.25)">
     <defs>
      <path id="DejaVuSans-43" d="M 4122 4306 
L 4122 3641 
Q 3803 3938 3442 4084 
Q 3081 4231 2675 4231 
Q 1875 4231 1450 3742 
Q 1025 3253 1025 2328 
Q 1025 1406 1450 917 
Q 1875 428 2675 428 
Q 3081 428 3442 575 
Q 3803 722 4122 1019 
L 4122 359 
Q 3791 134 3420 21 
Q 3050 -91 2638 -91 
Q 1578 -91 968 557 
Q 359 1206 359 2328 
Q 359 3453 968 4101 
Q 1578 4750 2638 4750 
Q 3056 4750 3426 4639 
Q 3797 4528 4122 4306 
z
" transform="scale(0.015625)"/>
      <path id="DejaVuSans-6f" d="M 1959 3097 
Q 1497 3097 1228 2736 
Q 959 2375 959 1747 
Q 959 1119 1226 758 
Q 1494 397 1959 397 
Q 2419 397 2687 759 
Q 2956 1122 2956 1747 
Q 2956 2369 2687 2733 
Q 2419 3097 1959 3097 
z
M 1959 3584 
Q 2709 3584 3137 3096 
Q 3566 2609 3566 1747 
Q 3566 888 3137 398 
Q 2709 -91 1959 -91 
Q 1206 -91 779 398 
Q 353 888 353 1747 
Q 353 2609 779 3096 
Q 1206 3584 1959 3584 
z
" transform="scale(0.015625)"/>
      <path id="DejaVuSans-72" d="M 2631 2963 
Q 2534 3019 2420 3045 
Q 2306 3072 2169 3072 
Q 1681 3072 1420 2755 
Q 1159 2438 1159 1844 
L 1159 0 
L 581 0 
L 581 3500 
L 1159 3500 
L 1159 2956 
Q 1341 3275 1631 3429 
Q 1922 3584 2338 3584 
Q 2397 3584 2469 3576 
Q 2541 3569 2628 3553 
L 2631 2963 
z
" transform="scale(0.015625)"/>
      <path id="DejaVuSans-64" d="M 2906 2969 
L 2906 4863 
L 3481 4863 
L 3481 0 
L 2906 0 
L 2906 525 
Q 2725 213 2448 61 
Q 2172 -91 1784 -91 
Q 1150 -91 751 415 
Q 353 922 353 1747 
Q 353 2572 751 3078 
Q 1150 3584 1784 3584 
Q 2172 3584 2448 3432 
Q 2725 3281 2906 2969 
z
M 947 1747 
Q 947 1113 1208 752 
Q 1469 391 1925 391 
Q 2381 391 2643 752 
Q 2906 1113 2906 1747 
Q 2906 2381 2643 2742 
Q 2381 3103 1925 3103 
Q 1469 3103 1208 2742 
Q 947 2381 947 1747 
z
" transform="scale(0.015625)"/>
      <path id="DejaVuSans-6e" d="M 3513 2113 
L 3513 0 
L 2938 0 
L 2938 2094 
Q 2938 2591 2744 2837 
Q 2550 3084 2163 3084 
Q 1697 3084 1428 2787 
Q 1159 2491 1159 1978 
L 1159 0 
L 581 0 
L 581 3500 
L 1159 3500 
L 1159 2956 
Q 1366 3272 1645 3428 
Q 1925 3584 2291 3584 
Q 2894 3584 3203 3211 
Q 3513 2838 3513 2113 
z
" transform="scale(0.015625)"/>
      <path id="DejaVuSans-61" d="M 2194 1759 
Q 1497 1759 1228 1600 
Q 959 1441 959 1056 
Q 959 750 1161 570 
Q 1363 391 1709 391 
Q 2188 391 2477 730 
Q 2766 1069 2766 1631 
L 2766 1759 
L 2194 1759 
z
M 3341 1997 
L 3341 0 
L 2766 0 
L 2766 531 
Q 2569 213 2275 61 
Q 1981 -91 1556 -91 
Q 1019 -91 701 211 
Q 384 513 384 1019 
Q 384 1609 779 1909 
Q 1175 2209 1959 2209 
L 2766 2209 
L 2766 2266 
Q 2766 2663 2505 2880 
Q 2244 3097 1772 3097 
Q 1472 3097 1187 3025 
Q 903 2953 641 2809 
L 641 3341 
Q 956 3463 1253 3523 
Q 1550 3584 1831 3584 
Q 2591 3584 2966 3190 
Q 3341 2797 3341 1997 
z
" transform="scale(0.015625)"/>
      <path id="DejaVuSans-78" d="M 3513 3500 
L 2247 1797 
L 3578 0 
L 2900 0 
L 1881 1375 
L 863 0 
L 184 0 
L 1544 1831 
L 300 3500 
L 978 3500 
L 1906 2253 
L 2834 3500 
L 3513 3500 
z
" transform="scale(0.015625)"/>
      <path id="DejaVuSans-2c" d="M 750 794 
L 1409 794 
L 1409 256 
L 897 -744 
L 494 -744 
L 750 256 
L 750 794 
z
" transform="scale(0.015625)"/>
      <path id="DejaVuSans-79" d="M 2059 -325 
Q 1816 -950 1584 -1140 
Q 1353 -1331 966 -1331 
L 506 -1331 
L 506 -850 
L 844 -850 
Q 1081 -850 1212 -737 
Q 1344 -625 1503 -206 
L 1606 56 
L 191 3500 
L 800 3500 
L 1894 763 
L 2988 3500 
L 3597 3500 
L 2059 -325 
z
" transform="scale(0.015625)"/>
      <path id="DejaVuSans-5b" d="M 550 4863 
L 1875 4863 
L 1875 4416 
L 1125 4416 
L 1125 -397 
L 1875 -397 
L 1875 -844 
L 550 -844 
L 550 4863 
z
" transform="scale(0.015625)"/>
      <path id="DejaVuSans-5d" d="M 1947 4863 
L 1947 -844 
L 622 -844 
L 622 -397 
L 1369 -397 
L 1369 4416 
L 622 4416 
L 622 4863 
L 1947 4863 
z
" transform="scale(0.015625)"/>
     </defs>
     <use xlink:href="#DejaVuSans-43"/>
     <use xlink:href="#DejaVuSans-6f" x="69.824219"/>
     <use xlink:href="#DejaVuSans-6f" x="131.005859"/>
     <use xlink:href="#DejaVuSans-72" x="192.1875"/>
     <use xlink:href="#DejaVuSans-64" x="231.550781"/>
     <use xlink:href="#DejaVuSans-69" x="295.027344"/>
     <use xlink:href="#DejaVuSans-6e" x="322.810547"/>
     <use xlink:href="#DejaVuSans-61" x="386.189453"/>
     <use xlink:href="#DejaVuSans-74" x="447.46875"/>
     <use xlink:href="#DejaVuSans-65" x="486.677734"/>
     <use xlink:href="#DejaVuSans-73" x="548.201172"/>
     <use xlink:href="#DejaVuSans-3a" x="600.300781"/>
     <use xlink:href="#DejaVuSans-20" x="633.992188"/>
     <use xlink:href="#DejaVuSans-78" x="665.779297"/>
     <use xlink:href="#DejaVuSans-2c" x="724.958984"/>
     <use xlink:href="#DejaVuSans-20" x="756.746094"/>
     <use xlink:href="#DejaVuSans-79" x="788.533203"/>
     <use xlink:href="#DejaVuSans-20" x="847.712891"/>
     <use xlink:href="#DejaVuSans-5b" x="879.5"/>
     <use xlink:href="#DejaVuSans-6d" x="918.513672"/>
     <use xlink:href="#DejaVuSans-5d" x="1015.925781"/>
    </g>
   </g>
  </g>
 </g>
 <defs>
  <clipPath id="p39389cf31a">
   <rect x="69.134375" y="7.2" width="498.96" height="498.96"/>
  </clipPath>
 </defs>
</svg>
